<?xml version="1.0" encoding="utf-8"?>
<!-- Generator: Adobe Illustrator 20.1.0, SVG Export Plug-In . SVG Version: 6.00 Build 0)  -->
<svg version="1.1" id="Layer_1" xmlns="http://www.w3.org/2000/svg" xmlns:xlink="http://www.w3.org/1999/xlink" x="0px" y="0px"
	 viewBox="0 0 466.7 66.1" style="enable-background:new 0 0 466.7 66.1;" xml:space="preserve">
<style type="text/css">
	.st0{fill:#873275;}
	.st1{clip-path:url(#SVGID_2_);fill:none;stroke:#873275;stroke-width:2.291;stroke-miterlimit:10;}
	.st2{clip-path:url(#SVGID_2_);fill:none;stroke:#873275;stroke-width:2.435;}
</style>
<g>
	<path class="st0" d="M66.1,44c0-9-9.7-16.3-32.2-16.3H3.7v32.6H34C56.4,60.2,66.1,53,66.1,44L66.1,44z M53.4,44
		c0,6.5-4.3,11.6-24.3,11.6H16.5V32.3H29C49.1,32.3,53.4,37.5,53.4,44L53.4,44z"/>
	<polygon class="st0" points="75.7,60.2 128.9,60.2 128.9,55.3 88.5,55.3 88.5,45.8 117.2,45.8 117.2,41.1 88.5,41.1 88.5,32.6 
		128.2,32.6 128.2,27.7 75.7,27.7 75.7,60.2 	"/>
	<polygon class="st0" points="138.5,60.2 150.7,60.2 150.7,36.3 151,36.3 184.2,60.2 197.6,60.2 197.6,27.7 185.5,27.7 185.5,51.7 
		185.3,51.7 152,27.7 138.5,27.7 138.5,60.2 	"/>
	<polygon class="st0" points="207.2,32.6 230.3,32.6 230.3,60.2 243.1,60.2 243.1,32.6 266.3,32.6 266.3,27.7 207.2,27.7 
		207.2,32.6 	"/>
	<polygon class="st0" points="275.8,60.2 288.6,60.2 288.6,27.7 275.8,27.7 275.8,60.2 	"/>
	<polygon class="st0" points="324,43.4 298.2,60.2 312.8,60.2 331.3,47.8 349.5,60.2 365,60.2 339.2,43.4 363.3,27.7 349,27.7 
		331.7,39.2 315.2,27.7 299.9,27.7 324,43.4 	"/>
	<g>
		<defs>
			<rect id="SVGID_1_" x="3.7" y="2" width="457.8" height="62.4"/>
		</defs>
		<clipPath id="SVGID_2_">
			<use xlink:href="#SVGID_1_"  style="overflow:visible;"/>
		</clipPath>
		<path class="st1" d="M415.4,60.2c-7.9-8-14.1-23.6-16.6-41.7c-0.1-1-0.2-2-0.2-2.9c0-3.9,1-6.9,2.9-9c1.7-1.9,4.2-3.1,7.4-3.4
			l27.6,0c3.3,0.4,5.8,1.5,7.6,3.3c1.9,2,2.9,4.9,2.9,8.6c0,1.1-0.1,2.3-0.2,3.5c-2.5,18.1-8.7,33.7-16.6,41.6c-1.9,1.9-4.5,3-7.4,3
			C420,63.2,417.3,62.1,415.4,60.2 M390.8,60.2c-7.9-8-14.1-23.6-16.6-41.7c-0.1-1-0.2-2-0.2-2.9c0-3.9,1-6.9,2.9-9
			c1.7-1.9,4.2-3.1,7.4-3.4l27.6,0c3.3,0.4,5.8,1.5,7.6,3.3c1.9,2,2.9,4.9,2.9,8.6c0,1.1-0.1,2.3-0.2,3.5
			c-2.5,18.1-8.7,33.7-16.6,41.6c-1.9,1.9-4.5,3-7.4,3C395.3,63.2,392.7,62.1,390.8,60.2"/>
		<line class="st2" x1="3.7" y1="13.7" x2="461.5" y2="13.7"/>
	</g>
</g>
</svg>
