<?xml version="1.0" encoding="utf-8"?>
<!-- Generator: Adobe Illustrator 21.1.0, SVG Export Plug-In . SVG Version: 6.00 Build 0)  -->
<svg version="1.1" id="Layer_1" xmlns="http://www.w3.org/2000/svg" xmlns:xlink="http://www.w3.org/1999/xlink" x="0px" y="0px"
	 viewBox="0 0 457.8 62.4" style="enable-background:new 0 0 457.8 62.4;" xml:space="preserve">
<style type="text/css">
	.st0{fill:#FFFFFF;}
	.st1{clip-path:url(#SVGID_2_);fill:none;stroke:#FFFFFF;stroke-width:2.291;stroke-miterlimit:10;}
	.st2{clip-path:url(#SVGID_2_);fill:none;stroke:#FFFFFF;stroke-width:2.435;}
</style>
<g>
	<path class="st0" d="M62.3,42.2c0-9-9.7-16.3-32.2-16.3H-0.1v32.6h30.2C52.6,58.4,62.3,51.1,62.3,42.2L62.3,42.2z M49.5,42.2
		c0,6.5-4.3,11.6-24.3,11.6H12.7V30.5h12.6C45.2,30.5,49.5,35.6,49.5,42.2L49.5,42.2z"/>
	<polygon class="st0" points="71.9,58.4 125.1,58.4 125.1,53.5 84.7,53.5 84.7,44 113.4,44 113.4,39.3 84.7,39.3 84.7,30.8 
		124.4,30.8 124.4,25.9 71.9,25.9 71.9,58.4 	"/>
	<polygon class="st0" points="134.7,58.4 146.8,58.4 146.8,34.5 147.1,34.5 180.3,58.4 193.8,58.4 193.8,25.9 181.7,25.9 
		181.7,49.9 181.5,49.9 148.2,25.9 134.7,25.9 134.7,58.4 	"/>
	<polygon class="st0" points="203.4,30.8 226.5,30.8 226.5,58.4 239.3,58.4 239.3,30.8 262.4,30.8 262.4,25.9 203.4,25.9 
		203.4,30.8 	"/>
	<polygon class="st0" points="272,58.4 284.8,58.4 284.8,25.9 272,25.9 272,58.4 	"/>
	<polygon class="st0" points="320.2,41.6 294.4,58.4 309,58.4 327.5,46 345.7,58.4 361.2,58.4 335.3,41.6 359.4,25.9 345.1,25.9 
		327.9,37.4 311.3,25.9 296.1,25.9 320.2,41.6 	"/>
	<g>
		<defs>
			<rect id="SVGID_1_" x="-0.1" y="0.2" width="457.8" height="62.4"/>
		</defs>
		<clipPath id="SVGID_2_">
			<use xlink:href="#SVGID_1_"  style="overflow:visible;"/>
		</clipPath>
		<path class="st1" d="M411.6,58.4c-7.9-8-14.1-23.6-16.6-41.7c-0.1-1-0.2-2-0.2-2.9c0-3.9,1-6.9,2.9-9c1.7-1.9,4.2-3.1,7.4-3.4
			l27.6,0c3.3,0.4,5.8,1.5,7.6,3.3c1.9,2,2.9,4.9,2.9,8.6c0,1.1-0.1,2.3-0.2,3.5c-2.5,18.1-8.7,33.7-16.6,41.6c-1.9,1.9-4.5,3-7.4,3
			C416.1,61.4,413.5,60.3,411.6,58.4 M387,58.4c-7.9-8-14.1-23.6-16.6-41.7c-0.1-1-0.2-2-0.2-2.9c0-3.9,1-6.9,2.9-9
			c1.7-1.9,4.2-3.1,7.4-3.4l27.6,0c3.3,0.4,5.8,1.5,7.6,3.3c1.9,2,2.9,4.9,2.9,8.6c0,1.1-0.1,2.3-0.2,3.5
			c-2.5,18.1-8.7,33.7-16.6,41.6c-1.9,1.9-4.5,3-7.4,3C391.5,61.4,388.9,60.3,387,58.4"/>
		<line class="st2" x1="-0.1" y1="11.9" x2="457.7" y2="11.9"/>
	</g>
</g>
</svg>
